<svg width="35" height="26" viewBox="0 0 35 26" fill="none" xmlns="http://www.w3.org/2000/svg">
  <path d="M35 0.0898094H10.9119C4.88411 0.0898094 0 4.97392 0 11.0018V11.1347C0 16.3912 3.72044 20.7766 8.67104 21.8106C9.23625 21.9303 9.64853 22.4191 9.64853 22.9976V25.172C9.64853 25.4513 9.98433 25.5876 10.1805 25.3914L13.1695 22.4024C13.3956 22.1763 13.7048 22.0467 14.0273 22.0467H24.0881C30.1159 22.0467 35 17.1626 35 11.1347V0.0898094Z" fill="currentColor" />
  <path d="M14.0306 7.69358C12.2153 6.58643 9.84469 7.15829 8.73753 8.97363C8.71758 9.00355 8.70429 9.0368 8.68766 9.06672C8.32859 9.60866 8.10251 10.4532 8.10251 11.4539C8.10251 13.7547 9.16976 15.6431 11.0183 16.4644L11.1015 16.3812C10.9784 15.8892 10.9784 15.5168 10.9784 15.1478C10.9784 15.0048 10.9818 14.8452 10.9884 14.679C12.6076 15.1345 14.393 14.4861 15.314 12.98C16.4211 11.1713 15.8459 8.80406 14.0306 7.69358Z" fill="var(--background-color)" />
  <path d="M25.5643 14.4429C23.7489 15.55 21.3784 14.9782 20.2712 13.1628C20.2513 13.1329 20.238 13.0997 20.2213 13.0697C19.8623 12.5278 19.6362 11.6833 19.6362 10.6825C19.6362 8.3818 20.7034 6.49332 22.552 5.6721L22.6351 5.75522C22.5121 6.24729 22.5121 6.61966 22.5121 6.98871C22.5121 7.13168 22.5154 7.29127 22.5221 7.45751C24.1413 7.00201 25.9267 7.65034 26.8476 9.15647C27.9548 10.9685 27.3796 13.3357 25.5643 14.4429Z" fill="var(--background-color)" />
</svg>
  