<svg width="256" height="256" viewBox="0 0 256 256" xmlns="http://www.w3.org/2000/svg">
  <title>RSS feed icon</title>

  <g clip-path="url(#clip0_1041_112)">
    <rect width="256" height="256" rx="38" fill="orange" />
    <path fill-rule="evenodd" clip-rule="evenodd"
      d="M32 32C138.039 32 224 117.961 224 224H192C192 135.634 120.365 64 32 64V32ZM159.855 224C159.951 222.012 160 220.012 160 218C160 150.621 105.379 96 37.9999 96C35.9882 96 33.9879 96.0487 32 96.145V128.197C33.9831 128.066 35.9838 128 37.9999 128C87.7055 128 128 168.294 128 218C128 220.016 127.934 222.017 127.803 224H159.855ZM64.0245 224C81.7112 224 96.0491 209.673 96.0491 192C96.0491 174.327 81.7112 160 64.0245 160C46.3636 160 32.0418 174.285 32 191.923V192.077C32.0418 209.715 46.3636 224 64.0245 224Z"
      fill="white" />
  </g>
  <defs>
    <clipPath id="clip0_1041_112">
      <rect width="256" height="256" fill="white" />
    </clipPath>
  </defs>
</svg>